/* XPM */
static char * mini-tksimsys [] = {
/* width height ncolors cpp [x_hot y_hot] */
"16 14 4 1 0 0",
/* colors */
" 	s none	m none	c none",
".	s iconColor1	m black	c black",
"X	s iconColor5	m black	c blue",
"o	s iconColor6	m white	c yellow",
/* pixels */
"                ",
"   ...  ..      ",
"X ..o.. .o.   X ",
" X.o.o.X.oo.XXXX",
"X ..... .o. X X ",
"   ...  ..  X   ",
"    X       X   ",
"   XXX      X   ",
"    X  ...  X   ",
"    X .ooo. X   ",
"    XX.o.o.XX   ",
"      .ooo.     ",
"       ...      ",
"                "};
