/* XPM */
static char * tksimsys [] = {
/* width height ncolors cpp [x_hot y_hot] */
"48 48 4 1 0 0",
/* colors */
" 	s none	m none	c none",
".	s iconColor5	m black	c blue",
"X	s iconColor1	m black	c black",
"o	s iconColor6	m white	c yellow",
/* pixels */
"                                                ",
"                                                ",
"                                                ",
"                                                ",
"                                                ",
"                                                ",
"                                                ",
"                                                ",
"                                                ",
".          XXXXX         XXXX                   ",
" .        XoooooX        XoXoXX                 ",
"  .   .  XoXoooXoX    .  XoXoooXX            .  ",
"  .   .. XooXoXooX    .. XoXoooooXX          .. ",
"  .......XoooXoooX.......XoXooooooo.............",
"  .   .. XooXXXooX    .. XoXoooooXX    .     .. ",
"  .   .  XoXXXXXoX    .  XoXoooXX      .     .  ",
" .        XXXXXXX        XoXoXX        .        ",
".          XXXXX         XXXX          .        ",
"             .                         .        ",
"             .                         .        ",
"             .                         .        ",
"             .                         .        ",
"             .                         .        ",
"             .                         .        ",
"             .                         .        ",
"             .                         .        ",
"             .                         .        ",
"             .                         .        ",
"             .                         .        ",
"             .                         .        ",
"             .                         .        ",
"             .                         .        ",
"             .                         .        ",
"             .           XXXXX         .        ",
"             .          XoooooX        .        ",
"             .         XoooooooX  .    .        ",
"             .         XoooXoooX ..    .        ",
"             ..........XooXXXooX........        ",
"                       XoooXoooX ..             ",
"                       XoooooooX  .             ",
"                        XoooooX                 ",
"                         XXXXX                  ",
"                                                ",
"                                                ",
"                                                ",
"                                                ",
"                                                ",
"                                                "};
