#define cuwn5_width 31
#define cuwn5_height 31
static unsigned char cuwn5_bits[] = {
   0x00, 0x80, 0x00, 0x00, 0x00, 0x80, 0xff, 0x0f, 0x00, 0x80, 0x00, 0x08,
   0x00, 0xe0, 0x03, 0x08, 0x00, 0xc0, 0x01, 0x08, 0x00, 0x80, 0x00, 0x08,
   0x00, 0xc0, 0x01, 0x08, 0x00, 0x20, 0x02, 0x08, 0x00, 0x90, 0x04, 0x08,
   0x00, 0x88, 0x08, 0x08, 0x00, 0x88, 0x08, 0x08, 0x00, 0x08, 0x08, 0x08,
   0x00, 0x90, 0x04, 0x08, 0x00, 0x20, 0x02, 0x18, 0x00, 0xc0, 0x01, 0x20,
   0x1f, 0x80, 0x00, 0x7c, 0x20, 0xe0, 0x03, 0x22, 0x40, 0xc0, 0x01, 0x19,
   0x80, 0x80, 0x80, 0x08, 0x00, 0xc5, 0x41, 0x08, 0x00, 0x26, 0x22, 0x08,
   0x00, 0x17, 0x14, 0x08, 0x00, 0x88, 0x08, 0x08, 0x00, 0xc8, 0x09, 0x08,
   0x00, 0x88, 0x08, 0x08, 0x00, 0x10, 0x04, 0x08, 0x00, 0x20, 0x02, 0x08,
   0x00, 0xc0, 0x01, 0x08, 0x00, 0x00, 0x00, 0x08, 0x00, 0x80, 0xff, 0x0f,
   0x00, 0x80, 0x00, 0x00};
