#define dfe2_width 31
#define dfe2_height 31
static unsigned char dfe2_bits[] = {
   0x00, 0x00, 0x00, 0x00, 0x00, 0x00, 0x00, 0x00, 0x00, 0x00, 0x00, 0x00,
   0x00, 0x00, 0x00, 0x00, 0x00, 0x00, 0x00, 0x00, 0xe0, 0xff, 0xff, 0x03,
   0x20, 0x00, 0x00, 0x02, 0x20, 0x00, 0x00, 0x02, 0x20, 0x00, 0x00, 0x02,
   0x20, 0x80, 0x00, 0x02, 0x20, 0xc0, 0x01, 0x02, 0x20, 0x80, 0x00, 0x02,
   0x20, 0x00, 0x00, 0x02, 0x20, 0x00, 0x00, 0x12, 0x20, 0x70, 0x0c, 0x1a,
   0x3f, 0xd8, 0x06, 0x7e, 0x20, 0x98, 0x03, 0x1a, 0x20, 0x80, 0x01, 0x12,
   0x20, 0xc0, 0x00, 0x02, 0x20, 0xe0, 0x0c, 0x02, 0x20, 0xb0, 0x0d, 0x02,
   0x20, 0x18, 0x07, 0x02, 0x20, 0x00, 0x00, 0x02, 0x20, 0x00, 0x00, 0x02,
   0x20, 0x00, 0x00, 0x02, 0xe0, 0xff, 0xff, 0x03, 0x00, 0x00, 0x00, 0x00,
   0x00, 0x00, 0x00, 0x00, 0x00, 0x00, 0x00, 0x00, 0x00, 0x00, 0x00, 0x00,
   0x00, 0x00, 0x00, 0x00};
