#define epw1_width 31
#define epw1_height 31
static unsigned char epw1_bits[] = {
   0x00, 0x00, 0x00, 0x00, 0x00, 0x00, 0x00, 0x00, 0x00, 0x00, 0x00, 0x00,
   0x00, 0x00, 0x00, 0x00, 0x00, 0x00, 0x00, 0x00, 0xe0, 0xff, 0xff, 0x03,
   0x20, 0x00, 0x00, 0x02, 0x20, 0x00, 0x00, 0x02, 0x20, 0x00, 0x04, 0x02,
   0x20, 0x00, 0x24, 0x02, 0x20, 0x00, 0x14, 0x02, 0x20, 0x00, 0x0c, 0x02,
   0x20, 0x00, 0x14, 0x02, 0x24, 0x00, 0x24, 0x02, 0x2c, 0x1c, 0x03, 0x02,
   0x3f, 0xb6, 0x01, 0x7e, 0x2c, 0xe6, 0x00, 0x02, 0x24, 0x60, 0x00, 0x02,
   0x20, 0x30, 0x00, 0x02, 0x20, 0x38, 0x03, 0x02, 0x20, 0x6c, 0x03, 0x02,
   0x20, 0xc6, 0x01, 0x02, 0x20, 0x00, 0x00, 0x02, 0x20, 0x00, 0x00, 0x02,
   0x20, 0x00, 0x00, 0x02, 0xe0, 0xff, 0xff, 0x03, 0x00, 0x00, 0x00, 0x00,
   0x00, 0x00, 0x00, 0x00, 0x00, 0x00, 0x00, 0x00, 0x00, 0x00, 0x00, 0x00,
   0x00, 0x00, 0x00, 0x00};
