#define gre2_width 31
#define gre2_height 31
static unsigned char gre2_bits[] = {
   0x00, 0x00, 0x00, 0x00, 0x00, 0x00, 0x00, 0x00, 0x00, 0x00, 0x00, 0x00,
   0x00, 0x00, 0x00, 0x00, 0x00, 0x00, 0x00, 0x00, 0xe0, 0xff, 0xff, 0x03,
   0x20, 0x00, 0x00, 0x03, 0x20, 0x80, 0x80, 0x03, 0x20, 0x00, 0xc0, 0x02,
   0x20, 0x80, 0x60, 0x02, 0x20, 0x00, 0x30, 0x02, 0x20, 0x80, 0x18, 0x02,
   0x20, 0x00, 0x0c, 0x02, 0x20, 0x80, 0x06, 0x12, 0x20, 0x00, 0x03, 0x1a,
   0xff, 0xff, 0x55, 0x7f, 0xe0, 0xff, 0x00, 0x1a, 0x20, 0x80, 0x00, 0x12,
   0x20, 0x00, 0x00, 0x02, 0x20, 0x80, 0x00, 0x02, 0x20, 0x00, 0x00, 0x02,
   0x20, 0x80, 0x00, 0x02, 0x20, 0x00, 0x00, 0x02, 0x20, 0x80, 0x00, 0x02,
   0x20, 0x00, 0x00, 0x02, 0xe0, 0xff, 0xff, 0x03, 0x00, 0x00, 0x00, 0x00,
   0x00, 0x00, 0x00, 0x00, 0x00, 0x00, 0x00, 0x00, 0x00, 0x00, 0x00, 0x00,
   0x00, 0x00, 0x00, 0x00};
