#define hpe2_width 31
#define hpe2_height 31
static unsigned char hpe2_bits[] = {
   0x00, 0x00, 0x00, 0x00, 0x00, 0x00, 0x00, 0x00, 0x00, 0x00, 0x00, 0x00,
   0x00, 0x00, 0x00, 0x00, 0x00, 0x00, 0x00, 0x00, 0xe0, 0xff, 0xff, 0x03,
   0x20, 0x00, 0x00, 0x02, 0x20, 0x00, 0x00, 0x02, 0x20, 0x00, 0x00, 0x02,
   0x20, 0x00, 0x00, 0x02, 0xe0, 0xfd, 0xf9, 0x02, 0xa0, 0x48, 0x92, 0x02,
   0xa0, 0x48, 0x14, 0x02, 0xa0, 0x48, 0x14, 0x12, 0xa0, 0x48, 0x52, 0x1a,
   0xbf, 0xcf, 0x71, 0x7e, 0xa0, 0x48, 0x50, 0x1a, 0xa0, 0x48, 0x10, 0x12,
   0xa0, 0x48, 0x10, 0x02, 0xa0, 0x48, 0x10, 0x02, 0xe0, 0xfd, 0x38, 0x02,
   0x20, 0x00, 0x00, 0x02, 0x20, 0x00, 0x00, 0x02, 0x20, 0x00, 0x00, 0x02,
   0x20, 0x00, 0x00, 0x02, 0xe0, 0xff, 0xff, 0x03, 0x00, 0x00, 0x00, 0x00,
   0x00, 0x00, 0x00, 0x00, 0x00, 0x00, 0x00, 0x00, 0x00, 0x00, 0x00, 0x00,
   0x00, 0x00, 0x00, 0x00};
