#define hpw1_width 31
#define hpw1_height 31
static unsigned char hpw1_bits[] = {
   0x00, 0x00, 0x00, 0x00, 0x00, 0x00, 0x00, 0x00, 0x00, 0x00, 0x00, 0x00,
   0x00, 0x00, 0x00, 0x00, 0x00, 0x00, 0x00, 0x00, 0xe0, 0xff, 0xff, 0x03,
   0x20, 0x00, 0x00, 0x02, 0x20, 0x00, 0x00, 0x02, 0x20, 0x00, 0x00, 0x02,
   0x20, 0x00, 0x00, 0x02, 0xe0, 0xfd, 0xf9, 0x02, 0xa0, 0x48, 0x92, 0x02,
   0xa0, 0x48, 0x14, 0x02, 0xa4, 0x48, 0x14, 0x02, 0xac, 0x48, 0x52, 0x02,
   0xbf, 0xcf, 0x71, 0x7e, 0xac, 0x48, 0x50, 0x02, 0xa4, 0x48, 0x10, 0x02,
   0xa0, 0x48, 0x10, 0x02, 0xa0, 0x48, 0x10, 0x02, 0xe0, 0xfd, 0x38, 0x02,
   0x20, 0x00, 0x00, 0x02, 0x20, 0x00, 0x00, 0x02, 0x20, 0x00, 0x00, 0x02,
   0x20, 0x00, 0x00, 0x02, 0xe0, 0xff, 0xff, 0x03, 0x00, 0x00, 0x00, 0x00,
   0x00, 0x00, 0x00, 0x00, 0x00, 0x00, 0x00, 0x00, 0x00, 0x00, 0x00, 0x00,
   0x00, 0x00, 0x00, 0x00};
