#define ige2_width 31
#define ige2_height 31
static unsigned char ige2_bits[] = {
   0x00, 0x00, 0x00, 0x00, 0x00, 0x00, 0x00, 0x00, 0x00, 0x00, 0x00, 0x00,
   0x00, 0x00, 0x00, 0x00, 0x00, 0x00, 0x00, 0x00, 0x00, 0x00, 0xf0, 0x03,
   0x00, 0x00, 0x2c, 0x02, 0x00, 0x00, 0x22, 0x02, 0x00, 0x80, 0x21, 0x02,
   0x00, 0x40, 0x20, 0x02, 0x00, 0x30, 0x20, 0x02, 0x00, 0x08, 0x20, 0x02,
   0x00, 0x06, 0x20, 0x02, 0x00, 0x01, 0x20, 0x12, 0xc0, 0x00, 0x20, 0x1a,
   0x3f, 0x00, 0x20, 0x7e, 0xc0, 0x00, 0x20, 0x1a, 0x00, 0x01, 0x20, 0x12,
   0x00, 0x06, 0x20, 0x02, 0x00, 0x08, 0x20, 0x02, 0x00, 0x30, 0x20, 0x02,
   0x00, 0x40, 0x20, 0x02, 0x00, 0x80, 0x21, 0x02, 0x00, 0x00, 0x22, 0x02,
   0x00, 0x00, 0x2c, 0x02, 0x00, 0x00, 0xf0, 0x03, 0x00, 0x00, 0x00, 0x00,
   0x00, 0x00, 0x00, 0x00, 0x00, 0x00, 0x00, 0x00, 0x00, 0x00, 0x00, 0x00,
   0x00, 0x00, 0x00, 0x00};
