#define igw1_width 31
#define igw1_height 31
static unsigned char igw1_bits[] = {
   0x00, 0x00, 0x00, 0x00, 0x00, 0x00, 0x00, 0x00, 0x00, 0x00, 0x00, 0x00,
   0x00, 0x00, 0x00, 0x00, 0x00, 0x00, 0x00, 0x00, 0xe0, 0x07, 0x00, 0x00,
   0x20, 0x1a, 0x00, 0x00, 0x20, 0x22, 0x00, 0x00, 0x20, 0xc2, 0x00, 0x00,
   0x20, 0x02, 0x01, 0x00, 0x20, 0x02, 0x06, 0x00, 0x20, 0x02, 0x08, 0x00,
   0x20, 0x02, 0x30, 0x00, 0x24, 0x02, 0x40, 0x00, 0x2c, 0x02, 0x80, 0x01,
   0x3f, 0x02, 0x00, 0x7e, 0x2c, 0x02, 0x80, 0x01, 0x24, 0x02, 0x40, 0x00,
   0x20, 0x02, 0x30, 0x00, 0x20, 0x02, 0x08, 0x00, 0x20, 0x02, 0x06, 0x00,
   0x20, 0x02, 0x01, 0x00, 0x20, 0xc2, 0x00, 0x00, 0x20, 0x22, 0x00, 0x00,
   0x20, 0x1a, 0x00, 0x00, 0xe0, 0x07, 0x00, 0x00, 0x00, 0x00, 0x00, 0x00,
   0x00, 0x00, 0x00, 0x00, 0x00, 0x00, 0x00, 0x00, 0x00, 0x00, 0x00, 0x00,
   0x00, 0x00, 0x00, 0x00};
