#define mpns2_width 31
#define mpns2_height 31
static unsigned char mpns2_bits[] = {
   0x00, 0x80, 0x00, 0x00, 0x00, 0x80, 0x00, 0x00, 0x00, 0xe0, 0x03, 0x00,
   0x00, 0xc0, 0x01, 0x00, 0x00, 0x80, 0x00, 0x00, 0x00, 0xf0, 0x07, 0x00,
   0x00, 0x0c, 0x18, 0x00, 0x00, 0x03, 0x60, 0x00, 0x80, 0x00, 0x80, 0x00,
   0x80, 0x00, 0x80, 0x00, 0x40, 0x00, 0x00, 0x01, 0x40, 0x00, 0x00, 0x01,
   0x20, 0xc0, 0x01, 0x02, 0x20, 0xe0, 0x03, 0x02, 0x20, 0xf0, 0x07, 0x02,
   0x3f, 0xf0, 0x07, 0x02, 0x20, 0xf0, 0x07, 0x02, 0x20, 0xe0, 0x03, 0x02,
   0x20, 0xc0, 0x01, 0x02, 0x40, 0x00, 0x00, 0x01, 0x40, 0x00, 0x00, 0x01,
   0x80, 0x00, 0x80, 0x00, 0x80, 0x00, 0x80, 0x00, 0x00, 0x03, 0x60, 0x00,
   0x00, 0x0c, 0x18, 0x00, 0x00, 0xf0, 0x07, 0x00, 0x00, 0x80, 0x00, 0x00,
   0x00, 0xc0, 0x01, 0x00, 0x00, 0xe0, 0x03, 0x00, 0x00, 0x80, 0x00, 0x00,
   0x00, 0x80, 0x00, 0x00};
