#define nnnw5_width 31
#define nnnw5_height 31
static unsigned char nnnw5_bits[] = {
   0x00, 0x80, 0x00, 0x00, 0xf8, 0xff, 0x00, 0x00, 0x08, 0x80, 0x00, 0x00,
   0x08, 0xe0, 0x03, 0x00, 0x08, 0xc0, 0x01, 0x00, 0x08, 0x80, 0x00, 0x00,
   0x08, 0xc0, 0x01, 0x00, 0x08, 0x20, 0x02, 0x00, 0x08, 0x10, 0x04, 0x00,
   0x08, 0x88, 0x08, 0x00, 0x08, 0xc8, 0x09, 0x00, 0x08, 0x88, 0x08, 0x00,
   0x08, 0x10, 0x04, 0x00, 0x0c, 0x20, 0x02, 0x00, 0x02, 0xc0, 0x01, 0x00,
   0x1f, 0x80, 0x00, 0x7c, 0x22, 0xe0, 0x03, 0x02, 0x4c, 0xc0, 0x01, 0x01,
   0x88, 0x80, 0x80, 0x00, 0x08, 0xc5, 0x41, 0x00, 0x08, 0x26, 0x22, 0x00,
   0x08, 0x37, 0x16, 0x00, 0x08, 0x48, 0x09, 0x00, 0x08, 0x88, 0x08, 0x00,
   0x08, 0x48, 0x09, 0x00, 0x08, 0x30, 0x06, 0x00, 0x08, 0x20, 0x02, 0x00,
   0x08, 0xc0, 0x01, 0x00, 0x08, 0x00, 0x00, 0x00, 0xf8, 0xff, 0x00, 0x00,
   0x00, 0x80, 0x00, 0x00};
