#define nnwn5_width 31
#define nnwn5_height 31
static unsigned char nnwn5_bits[] = {
   0x00, 0x80, 0x00, 0x00, 0x00, 0xc0, 0x01, 0x00, 0x00, 0xa0, 0x02, 0x00,
   0xfe, 0xbf, 0xfe, 0x3f, 0x02, 0x80, 0x00, 0x20, 0x02, 0x00, 0x01, 0x20,
   0x02, 0x00, 0x02, 0x20, 0x02, 0x00, 0x04, 0x20, 0x02, 0x00, 0x28, 0x20,
   0x02, 0x00, 0x30, 0x20, 0x02, 0x00, 0x38, 0x20, 0x02, 0x0e, 0xc0, 0x21,
   0x02, 0x11, 0x20, 0x22, 0x8a, 0x20, 0x31, 0x26, 0x5a, 0x44, 0x4b, 0x29,
   0x7f, 0xce, 0x8f, 0x68, 0x58, 0x44, 0x4b, 0x09, 0x88, 0x20, 0x31, 0x06,
   0x00, 0x11, 0x20, 0x02, 0x00, 0x0e, 0xc0, 0x01, 0x00, 0x00, 0x20, 0x00,
   0x00, 0x00, 0x10, 0x00, 0x00, 0x00, 0x08, 0x00, 0x00, 0x00, 0x04, 0x00,
   0x00, 0x00, 0x02, 0x00, 0x00, 0x00, 0x01, 0x00, 0x00, 0x80, 0x00, 0x00,
   0x00, 0x80, 0x00, 0x00, 0x00, 0x80, 0x00, 0x00, 0x00, 0x80, 0x00, 0x00,
   0x00, 0x80, 0x00, 0x00};
