#define snw1_width 31
#define snw1_height 31
static unsigned char snw1_bits[] = {
   0x00, 0x00, 0x00, 0x00, 0x00, 0x00, 0x00, 0x00, 0x00, 0x00, 0x00, 0x00,
   0x00, 0x00, 0x00, 0x00, 0x00, 0x00, 0x00, 0x00, 0xe0, 0xff, 0xff, 0x03,
   0x20, 0x00, 0x00, 0x02, 0x20, 0x80, 0x00, 0x02, 0x20, 0x00, 0x00, 0x02,
   0x20, 0x80, 0xe0, 0x03, 0x20, 0x00, 0xf0, 0x03, 0x20, 0x80, 0x08, 0x02,
   0x20, 0x00, 0x04, 0x02, 0x24, 0x80, 0x02, 0x02, 0x2c, 0x00, 0x01, 0x02,
   0xbf, 0xaa, 0xaa, 0x7e, 0x2c, 0x40, 0x00, 0x02, 0x24, 0xa0, 0x00, 0x02,
   0x20, 0x10, 0x00, 0x02, 0x20, 0x88, 0x00, 0x02, 0xe0, 0x07, 0x00, 0x02,
   0xe0, 0x83, 0x00, 0x02, 0x20, 0x00, 0x00, 0x02, 0x20, 0x80, 0x00, 0x02,
   0x20, 0x00, 0x00, 0x02, 0xe0, 0xff, 0xff, 0x03, 0x00, 0x00, 0x00, 0x00,
   0x00, 0x00, 0x00, 0x00, 0x00, 0x00, 0x00, 0x00, 0x00, 0x00, 0x00, 0x00,
   0x00, 0x00, 0x00, 0x00};
