#define tpe2_width 31
#define tpe2_height 31
static unsigned char tpe2_bits[] = {
   0x00, 0x00, 0x00, 0x00, 0x00, 0x00, 0x00, 0x00, 0x00, 0x00, 0x00, 0x00,
   0x00, 0x00, 0x00, 0x00, 0x00, 0x00, 0x00, 0x00, 0xe0, 0xff, 0xff, 0x03,
   0x20, 0x00, 0x00, 0x02, 0x20, 0x00, 0x00, 0x02, 0x20, 0x00, 0x00, 0x02,
   0x20, 0x00, 0x00, 0x02, 0xa0, 0xe3, 0xf9, 0x02, 0x20, 0x41, 0x92, 0x02,
   0x20, 0x41, 0x14, 0x02, 0x20, 0x41, 0x14, 0x12, 0x20, 0x41, 0x52, 0x1a,
   0x3f, 0xc1, 0x71, 0x7e, 0x20, 0x41, 0x50, 0x1a, 0x20, 0x41, 0x10, 0x12,
   0x20, 0x41, 0x10, 0x02, 0x20, 0x49, 0x10, 0x02, 0xa0, 0xef, 0x38, 0x02,
   0x20, 0x00, 0x00, 0x02, 0x20, 0x00, 0x00, 0x02, 0x20, 0x00, 0x00, 0x02,
   0x20, 0x00, 0x00, 0x02, 0xe0, 0xff, 0xff, 0x03, 0x00, 0x00, 0x00, 0x00,
   0x00, 0x00, 0x00, 0x00, 0x00, 0x00, 0x00, 0x00, 0x00, 0x00, 0x00, 0x00,
   0x00, 0x00, 0x00, 0x00};
