#define tze2_width 31
#define tze2_height 31
static unsigned char tze2_bits[] = {
   0x00, 0x00, 0x00, 0x00, 0x00, 0x00, 0x00, 0x00, 0x00, 0x00, 0x00, 0x00,
   0x00, 0x00, 0x00, 0x00, 0x00, 0x00, 0x00, 0x00, 0xe0, 0xff, 0xff, 0x03,
   0x20, 0x00, 0x00, 0x02, 0x20, 0x00, 0x00, 0x02, 0x20, 0x00, 0x00, 0x02,
   0x20, 0x00, 0x00, 0x02, 0x20, 0xfe, 0x07, 0x02, 0x20, 0x18, 0x0c, 0x02,
   0x20, 0x18, 0x18, 0x02, 0x20, 0x18, 0x30, 0x12, 0x20, 0x18, 0x30, 0x1a,
   0x3f, 0x18, 0x30, 0x7e, 0x20, 0x18, 0x30, 0x1a, 0x20, 0x18, 0x30, 0x12,
   0x20, 0x18, 0x18, 0x02, 0x20, 0x18, 0x0c, 0x02, 0x20, 0xfe, 0x07, 0x02,
   0x20, 0x00, 0x00, 0x02, 0x20, 0x00, 0x00, 0x02, 0x20, 0x00, 0x00, 0x02,
   0x20, 0x00, 0x00, 0x02, 0xe0, 0xff, 0xff, 0x03, 0x00, 0x00, 0x00, 0x00,
   0x00, 0x00, 0x00, 0x00, 0x00, 0x00, 0x00, 0x00, 0x00, 0x00, 0x00, 0x00,
   0x00, 0x00, 0x00, 0x00};
