#define tzw1_width 31
#define tzw1_height 31
static unsigned char tzw1_bits[] = {
   0x00, 0x00, 0x00, 0x00, 0x00, 0x00, 0x00, 0x00, 0x00, 0x00, 0x00, 0x00,
   0x00, 0x00, 0x00, 0x00, 0x00, 0x00, 0x00, 0x00, 0xe0, 0xff, 0xff, 0x03,
   0x20, 0x00, 0x00, 0x02, 0x20, 0x00, 0x00, 0x02, 0x20, 0x00, 0x00, 0x02,
   0x20, 0x00, 0x00, 0x02, 0x20, 0xfe, 0x07, 0x02, 0x20, 0x18, 0x0c, 0x02,
   0x20, 0x18, 0x18, 0x02, 0x24, 0x18, 0x30, 0x02, 0x2c, 0x18, 0x30, 0x02,
   0x3f, 0x18, 0x30, 0x7e, 0x2c, 0x18, 0x30, 0x02, 0x24, 0x18, 0x30, 0x02,
   0x20, 0x18, 0x18, 0x02, 0x20, 0x18, 0x0c, 0x02, 0x20, 0xfe, 0x07, 0x02,
   0x20, 0x00, 0x00, 0x02, 0x20, 0x00, 0x00, 0x02, 0x20, 0x00, 0x00, 0x02,
   0x20, 0x00, 0x00, 0x02, 0xe0, 0xff, 0xff, 0x03, 0x00, 0x00, 0x00, 0x00,
   0x00, 0x00, 0x00, 0x00, 0x00, 0x00, 0x00, 0x00, 0x00, 0x00, 0x00, 0x00,
   0x00, 0x00, 0x00, 0x00};
