#define vse2_width 31
#define vse2_height 31
static unsigned char vse2_bits[] = {
   0x00, 0x00, 0x00, 0x00, 0x00, 0x00, 0x00, 0x00, 0x00, 0x00, 0x00, 0x06,
   0x00, 0x00, 0x00, 0x04, 0x00, 0x00, 0x00, 0x64, 0x00, 0xf0, 0x07, 0x34,
   0x00, 0x0c, 0x18, 0x1c, 0x00, 0x03, 0x60, 0x14, 0x80, 0x00, 0x80, 0x24,
   0x80, 0x00, 0x80, 0x6e, 0x40, 0x00, 0x00, 0x01, 0x40, 0x00, 0x00, 0x01,
   0x20, 0xc0, 0x01, 0x02, 0x20, 0xe0, 0x03, 0x12, 0x20, 0xf0, 0x07, 0x1a,
   0x3f, 0xf0, 0x07, 0x7e, 0x20, 0xf0, 0x07, 0x1a, 0x20, 0xe0, 0x03, 0x12,
   0x20, 0xc0, 0x01, 0x02, 0x40, 0x00, 0x00, 0x01, 0x40, 0x00, 0x00, 0x01,
   0x80, 0x00, 0x80, 0x00, 0x80, 0x00, 0x80, 0x00, 0x00, 0x03, 0x60, 0x00,
   0x00, 0x0c, 0x18, 0x00, 0x00, 0xf0, 0x07, 0x00, 0x00, 0x00, 0x00, 0x00,
   0x00, 0x00, 0x00, 0x00, 0x00, 0x00, 0x00, 0x00, 0x00, 0x00, 0x00, 0x00,
   0x00, 0x00, 0x00, 0x00};
