#define xe1_width 31
#define xe1_height 31
static unsigned char xe1_bits[] = {
   0x00, 0x00, 0x00, 0x00, 0x00, 0x00, 0x00, 0x00, 0x00, 0x00, 0x00, 0x00,
   0x00, 0x00, 0x00, 0x00, 0x00, 0x00, 0x00, 0x00, 0x00, 0x00, 0x00, 0x00,
   0x00, 0x00, 0x00, 0x00, 0x00, 0x00, 0x00, 0x00, 0x00, 0x00, 0x80, 0x01,
   0xff, 0x07, 0x00, 0x02, 0x01, 0x04, 0x00, 0x04, 0x01, 0x04, 0x00, 0x08,
   0x01, 0x04, 0x00, 0x08, 0x01, 0x04, 0x00, 0x10, 0x01, 0x04, 0x00, 0x10,
   0x01, 0x04, 0x10, 0x70, 0x00, 0x04, 0x10, 0x10, 0x00, 0x04, 0x10, 0x10,
   0x00, 0x04, 0x10, 0x08, 0x00, 0x04, 0x10, 0x08, 0x00, 0x04, 0x10, 0x04,
   0x00, 0xfc, 0x1f, 0x02, 0x00, 0x00, 0x80, 0x01, 0x00, 0x00, 0x00, 0x00,
   0x00, 0x00, 0x00, 0x00, 0x00, 0x00, 0x00, 0x00, 0x00, 0x00, 0x00, 0x00,
   0x00, 0x00, 0x00, 0x00, 0x00, 0x00, 0x00, 0x00, 0x00, 0x00, 0x00, 0x00,
   0x00, 0x00, 0x00, 0x00};
