#define xe4_width 31
#define xe4_height 31
static unsigned char xe4_bits[] = {
   0x00, 0x00, 0x00, 0x00, 0x00, 0x00, 0x00, 0x00, 0x00, 0x00, 0x00, 0x00,
   0x00, 0x00, 0x00, 0x00, 0x00, 0x00, 0x00, 0x00, 0x00, 0x00, 0x00, 0x00,
   0x00, 0x00, 0x00, 0x00, 0x00, 0x00, 0x00, 0x00, 0xe0, 0xff, 0x00, 0x00,
   0x20, 0x80, 0x00, 0x00, 0x20, 0x80, 0x00, 0x00, 0x20, 0x80, 0x00, 0x00,
   0x20, 0x80, 0x00, 0x00, 0x20, 0x80, 0x00, 0x00, 0x20, 0x80, 0x00, 0x02,
   0x00, 0x80, 0x00, 0x02, 0x00, 0x80, 0x00, 0x02, 0x00, 0x80, 0x00, 0x02,
   0x00, 0x80, 0x00, 0x02, 0x00, 0x80, 0x00, 0x02, 0x00, 0x80, 0xff, 0x03,
   0x00, 0x00, 0x00, 0x00, 0x00, 0x00, 0x00, 0x00, 0x00, 0x01, 0x40, 0x00,
   0x00, 0x01, 0x40, 0x00, 0x00, 0x02, 0x20, 0x00, 0x00, 0x04, 0x10, 0x00,
   0x00, 0x18, 0x0c, 0x00, 0x00, 0xe0, 0x03, 0x00, 0x00, 0x80, 0x00, 0x00,
   0x00, 0x80, 0x00, 0x00};
