#define xi1_width 31
#define xi1_height 31
static unsigned char xi1_bits[] = {
   0x00, 0x00, 0x00, 0x00, 0x00, 0x00, 0x00, 0x00, 0x00, 0x00, 0x00, 0x00,
   0x00, 0x00, 0x00, 0x00, 0x00, 0x00, 0x00, 0x00, 0x00, 0x00, 0x00, 0x00,
   0x00, 0x00, 0x00, 0x00, 0x00, 0x00, 0x00, 0x00, 0x00, 0x00, 0x80, 0x01,
   0x01, 0x00, 0x00, 0x02, 0x01, 0x00, 0x00, 0x04, 0x01, 0x00, 0x00, 0x08,
   0x01, 0x00, 0x00, 0x08, 0x01, 0x00, 0x00, 0x10, 0x01, 0x00, 0x00, 0x10,
   0xff, 0xff, 0x0f, 0x70, 0x00, 0x00, 0x00, 0x10, 0x00, 0x00, 0x00, 0x10,
   0x00, 0x00, 0x00, 0x08, 0x00, 0x00, 0x00, 0x08, 0x00, 0x00, 0x00, 0x04,
   0x00, 0x00, 0x00, 0x02, 0x00, 0x00, 0x80, 0x01, 0x00, 0x00, 0x00, 0x00,
   0x00, 0x00, 0x00, 0x00, 0x00, 0x00, 0x00, 0x00, 0x00, 0x00, 0x00, 0x00,
   0x00, 0x00, 0x00, 0x00, 0x00, 0x00, 0x00, 0x00, 0x00, 0x00, 0x00, 0x00,
   0x00, 0x00, 0x00, 0x00};
