#define xr1_width 31
#define xr1_height 31
static unsigned char xr1_bits[] = {
   0x00, 0x00, 0x00, 0x00, 0x00, 0x00, 0x00, 0x00, 0x00, 0x00, 0x00, 0x00,
   0x00, 0x00, 0x00, 0x00, 0x00, 0x00, 0x00, 0x00, 0x00, 0x00, 0x00, 0x00,
   0x00, 0x00, 0x00, 0x00, 0x00, 0x00, 0x00, 0x00, 0x00, 0x00, 0x80, 0x01,
   0x00, 0x00, 0x00, 0x02, 0x00, 0x00, 0x00, 0x04, 0x00, 0x04, 0x04, 0x08,
   0x01, 0x06, 0x04, 0x08, 0x41, 0x46, 0x0c, 0x10, 0x4b, 0x4f, 0x0e, 0x10,
   0xda, 0xd9, 0x0a, 0x70, 0xfe, 0xf9, 0x1a, 0x10, 0xb6, 0xa9, 0x11, 0x10,
   0xa4, 0x20, 0x11, 0x08, 0x24, 0x20, 0x00, 0x08, 0x20, 0x00, 0x00, 0x04,
   0x00, 0x00, 0x00, 0x02, 0x00, 0x00, 0x80, 0x01, 0x00, 0x00, 0x00, 0x00,
   0x00, 0x00, 0x00, 0x00, 0x00, 0x00, 0x00, 0x00, 0x00, 0x00, 0x00, 0x00,
   0x00, 0x00, 0x00, 0x00, 0x00, 0x00, 0x00, 0x00, 0x00, 0x00, 0x00, 0x00,
   0x00, 0x00, 0x00, 0x00};
