#define xr4_width 31
#define xr4_height 31
static unsigned char xr4_bits[] = {
   0x00, 0x00, 0x00, 0x00, 0x00, 0x00, 0x00, 0x00, 0x00, 0x00, 0x00, 0x00,
   0x00, 0x00, 0x00, 0x00, 0x00, 0x00, 0x00, 0x00, 0x00, 0x00, 0x00, 0x00,
   0x00, 0x00, 0x00, 0x00, 0x00, 0x00, 0x00, 0x00, 0x00, 0x00, 0x00, 0x00,
   0x00, 0x00, 0x00, 0x00, 0x00, 0x80, 0x80, 0x00, 0x20, 0xc0, 0x80, 0x00,
   0x20, 0xc8, 0x88, 0x01, 0x60, 0xe9, 0xc9, 0x01, 0x40, 0x3b, 0x5b, 0x01,
   0xc0, 0x3f, 0x5f, 0x03, 0xc0, 0x36, 0x35, 0x02, 0x80, 0x14, 0x24, 0x02,
   0x80, 0x04, 0x04, 0x00, 0x00, 0x04, 0x00, 0x00, 0x00, 0x00, 0x00, 0x00,
   0x00, 0x00, 0x00, 0x00, 0x00, 0x00, 0x00, 0x00, 0x00, 0x01, 0x40, 0x00,
   0x00, 0x01, 0x40, 0x00, 0x00, 0x02, 0x20, 0x00, 0x00, 0x04, 0x10, 0x00,
   0x00, 0x18, 0x0c, 0x00, 0x00, 0xe0, 0x03, 0x00, 0x00, 0x80, 0x00, 0x00,
   0x00, 0x80, 0x00, 0x00};
