#define xs1_width 31
#define xs1_height 31
static unsigned char xs1_bits[] = {
   0x00, 0x00, 0x00, 0x00, 0x00, 0x00, 0x00, 0x00, 0x00, 0x00, 0x00, 0x00,
   0x00, 0x00, 0x00, 0x00, 0x00, 0x00, 0x00, 0x00, 0x00, 0x00, 0x00, 0x00,
   0x00, 0x00, 0x00, 0x00, 0x00, 0x00, 0x00, 0x00, 0x30, 0x00, 0x80, 0x01,
   0xcc, 0x00, 0x00, 0x02, 0x02, 0x01, 0x00, 0x04, 0x02, 0x01, 0x00, 0x08,
   0x01, 0x02, 0x00, 0x08, 0x01, 0x02, 0x00, 0x10, 0x01, 0x02, 0x00, 0x10,
   0x00, 0x04, 0x00, 0x70, 0x00, 0x08, 0x10, 0x10, 0x00, 0x08, 0x10, 0x10,
   0x00, 0x08, 0x10, 0x08, 0x00, 0x10, 0x08, 0x08, 0x00, 0x10, 0x08, 0x04,
   0x00, 0x60, 0x06, 0x02, 0x00, 0x80, 0x81, 0x01, 0x00, 0x00, 0x00, 0x00,
   0x00, 0x00, 0x00, 0x00, 0x00, 0x00, 0x00, 0x00, 0x00, 0x00, 0x00, 0x00,
   0x00, 0x00, 0x00, 0x00, 0x00, 0x00, 0x00, 0x00, 0x00, 0x00, 0x00, 0x00,
   0x00, 0x00, 0x00, 0x00};
