#define xs4_width 31
#define xs4_height 31
static unsigned char xs4_bits[] = {
   0x00, 0x00, 0x00, 0x00, 0x00, 0x00, 0x00, 0x00, 0x00, 0x00, 0x00, 0x00,
   0x00, 0x00, 0x00, 0x00, 0x00, 0x00, 0x00, 0x00, 0x00, 0x00, 0x00, 0x00,
   0x00, 0x06, 0x00, 0x00, 0x80, 0x19, 0x00, 0x00, 0x40, 0x20, 0x00, 0x00,
   0x40, 0x20, 0x00, 0x00, 0x20, 0x40, 0x00, 0x00, 0x20, 0x40, 0x00, 0x00,
   0x20, 0x40, 0x00, 0x00, 0x00, 0x80, 0x00, 0x00, 0x00, 0x00, 0x01, 0x02,
   0x00, 0x00, 0x01, 0x02, 0x00, 0x00, 0x01, 0x02, 0x00, 0x00, 0x02, 0x01,
   0x00, 0x00, 0x02, 0x01, 0x00, 0x00, 0xcc, 0x00, 0x00, 0x00, 0x30, 0x00,
   0x00, 0x00, 0x00, 0x00, 0x00, 0x00, 0x00, 0x00, 0x00, 0x01, 0x40, 0x00,
   0x00, 0x01, 0x40, 0x00, 0x00, 0x02, 0x20, 0x00, 0x00, 0x04, 0x10, 0x00,
   0x00, 0x18, 0x0c, 0x00, 0x00, 0xe0, 0x03, 0x00, 0x00, 0x80, 0x00, 0x00,
   0x00, 0x80, 0x00, 0x00};
