#define xz1_width 31
#define xz1_height 31
static unsigned char xz1_bits[] = {
   0x00, 0x00, 0x00, 0x00, 0x00, 0x00, 0x00, 0x00, 0x00, 0x00, 0x00, 0x00,
   0x00, 0x00, 0x00, 0x00, 0x00, 0x00, 0x00, 0x00, 0x00, 0x00, 0x00, 0x00,
   0x00, 0x00, 0x00, 0x00, 0x00, 0x00, 0x00, 0x00, 0x00, 0x00, 0x80, 0x01,
   0x02, 0x80, 0x03, 0x02, 0x02, 0x80, 0x02, 0x04, 0x02, 0x80, 0x02, 0x08,
   0x02, 0x80, 0x02, 0x08, 0x02, 0x80, 0x02, 0x10, 0x02, 0x80, 0x02, 0x10,
   0x1f, 0xfe, 0x1e, 0x70, 0x10, 0x0a, 0x00, 0x10, 0x10, 0x0a, 0x00, 0x10,
   0x10, 0x0a, 0x00, 0x08, 0x10, 0x0a, 0x00, 0x08, 0x10, 0x0a, 0x00, 0x04,
   0xf0, 0x0b, 0x00, 0x02, 0x00, 0x00, 0x80, 0x01, 0x00, 0x00, 0x00, 0x00,
   0x00, 0x00, 0x00, 0x00, 0x00, 0x00, 0x00, 0x00, 0x00, 0x00, 0x00, 0x00,
   0x00, 0x00, 0x00, 0x00, 0x00, 0x00, 0x00, 0x00, 0x00, 0x00, 0x00, 0x00,
   0x00, 0x00, 0x00, 0x00};
