#define xz4_width 31
#define xz4_height 31
static unsigned char xz4_bits[] = {
   0x00, 0x00, 0x00, 0x00, 0x00, 0x00, 0x00, 0x00, 0x00, 0x00, 0x00, 0x00,
   0x00, 0x00, 0x00, 0x00, 0x00, 0x00, 0x00, 0x00, 0x00, 0x00, 0x00, 0x00,
   0x00, 0x00, 0x00, 0x00, 0x00, 0x00, 0x00, 0x00, 0x40, 0x00, 0x70, 0x00,
   0x40, 0x00, 0x50, 0x00, 0x40, 0x00, 0x50, 0x00, 0x40, 0x00, 0x50, 0x00,
   0x40, 0x00, 0x50, 0x00, 0x40, 0x00, 0x50, 0x00, 0xe0, 0xc3, 0xdf, 0x03,
   0x00, 0x42, 0x01, 0x00, 0x00, 0x42, 0x01, 0x00, 0x00, 0x42, 0x01, 0x00,
   0x00, 0x42, 0x01, 0x00, 0x00, 0x42, 0x01, 0x00, 0x00, 0x7e, 0x01, 0x00,
   0x00, 0x00, 0x00, 0x00, 0x00, 0x00, 0x00, 0x00, 0x00, 0x01, 0x40, 0x00,
   0x00, 0x01, 0x40, 0x00, 0x00, 0x02, 0x20, 0x00, 0x00, 0x04, 0x10, 0x00,
   0x00, 0x18, 0x0c, 0x00, 0x00, 0xe0, 0x03, 0x00, 0x00, 0x80, 0x00, 0x00,
   0x00, 0x80, 0x00, 0x00};
